<svg xmlns="http://www.w3.org/2000/svg" width="173" height="21" fill="none">
    <path fill-rule="evenodd" clip-rule="evenodd" d="M64.175 2.254c.045-.988.854-1.797 1.888-1.752.988.045 1.797.854 1.752 1.887-.045.989-.853 1.753-1.797 1.753-1.034 0-1.843-.854-1.843-1.888Zm73.161 17.887v-2.966h3.146V3.602h-3.91V.592h6.966v11.324l3.775-3.595h-1.393v-2.92h7.684v2.92h-2.561l-3.101 3.101 3.236 5.752h2.921v2.966h-7.775v-2.966h1.528L145.74 13.4l-2.247 2.157v1.617h1.977v2.966h-8.134Zm-91.676 0v-2.966h2.472V8.32h-2.966V5.4h6.021v2.471c1.124-1.168 2.697-2.741 5.079-2.741 1.617 0 3.415 1.123 3.415 2.966.045.898-.584 1.662-1.483 1.752h-.045a1.552 1.552 0 0 1-1.483-.854c-.18-.404-.584-.674-1.078-.674-2.023 0-4 2.202-4.495 3.55v5.348h2.382v2.966l-7.82-.044Zm70.733-2.966v2.965h8.134v-2.966h-1.932v-1.617l2.292-2.158 2.112 3.775h-1.528v2.966h7.73v-2.966h-2.921l-3.236-5.797 3.101-3.1h2.516V5.354h-7.684V8.32h1.393l-3.775 3.595V.592h-6.966v3.01h3.91v13.572h-3.146Zm-87.676-.81c0 .9.63 1.304 1.753 1.304 3.146 0 5.977-1.708 5.977-3.91v-.764l-.36.045-.103.017c-2.256.368-7.267 1.184-7.267 3.309Zm6.241-5.469c-3.907.666-9.432 1.607-9.432 5.65 0 2.606 1.887 3.954 4.583 3.954 2.697 0 4.899-.989 6.292-2.472v2.157h5.033V17.22h-2.112v-7.01c0-3.326-2.022-5.123-6.426-5.123-1.618 0-5.932.674-5.932 3.864v.18a1.453 1.453 0 0 0 1.527 1.348c1.008 0 1.24-.493 1.512-1.072.104-.222.214-.456.376-.68.404-.584 1.168-1.079 3.1-1.079 1.619 0 2.832.584 2.832 2.157v.854a81.72 81.72 0 0 1-1.353.238Zm130.375-5.81a7.633 7.633 0 0 0-7.64 7.64 7.633 7.633 0 0 0 7.64 7.64 7.634 7.634 0 0 0 7.64-7.64 7.634 7.634 0 0 0-7.64-7.64Zm-4.538 7.64c0 2.516 2.067 4.583 4.584 4.583 2.516 0 4.583-2.067 4.583-4.584 0-2.516-2.067-4.583-4.583-4.583-2.562.044-4.584 2.067-4.584 4.583Zm-50.513-2.248h-7.685c.539-1.617 2.067-2.696 3.775-2.696 1.977 0 3.415.989 3.91 2.696ZM99.047 12.86c0-4 2.876-7.774 7.37-7.774 3.954 0 7.19 3.235 7.19 7.19v.764h-11.46v.27c-.044 2.381 1.888 4.359 4.27 4.359h.09a4.58 4.58 0 0 0 3.819-1.843c.63-.809 1.034-1.033 1.663-1.033a1.23 1.23 0 0 1 1.214 1.168v.09c0 1.798-2.652 4.404-6.651 4.404-5.034 0-7.46-3.865-7.505-7.595Zm-36.805 4.314v2.966h7.64v-2.966h-2.157V5.355h-5.438v2.966h2.292v8.853h-2.337ZM.674 20.14v-2.966h2.157V8.321H0V5.355h5.977v.72C6.292 5.76 7.1 5.04 8.853 5.04s3.056.854 3.37 1.348c.315-.405 1.798-1.303 3.64-1.303 2.338 0 4.585 1.303 4.585 3.82v8.268h1.932v2.966h-6.561v-2.966h1.707V9.76c0-1.258-.808-1.797-2.067-1.797-1.618 0-2.247.899-2.247 1.932v7.28h1.708v2.966H8.539v-2.966h1.707V9.85c0-1.303-.809-1.887-2.067-1.887-1.393 0-2.202.674-2.202 1.887v7.325h1.708v2.966H.675Zm73.566-2.966v2.966h7.01v-2.966h-1.707V9.85c0-1.213.943-1.887 2.246-1.887 1.304 0 2.068.584 2.068 1.887v7.325h-1.708v2.966h6.382v-2.966h-1.708v-7.28c0-1.033.584-1.932 2.202-1.932 1.258 0 2.067.54 2.067 1.797v7.415h-1.708v2.966h6.562v-2.966h-1.933V8.906c0-2.517-2.292-3.82-4.584-3.82-1.842 0-3.325.898-3.64 1.303-.27-.494-1.618-1.348-3.37-1.348-1.753 0-2.562.719-2.876 1.033v-.719h-5.977v2.966h2.83v8.853H74.24Z" fill="#141414"/>
</svg>
